# xmcd
#
# Track frame offsets:
#        150
#        32305
#        61112
#        119740
#        161050
#        190922
#        207827
#
# Disc length: 3160 seconds
#
# Revision: 3
# Processed by: cddbd v1.5.1PL2 Copyright (c) Steve Scherf et al.
# Submitted via: ExactAudioCopy v0.95b3
#
DISCID=5a0c5607
DTITLE=Eric Clapton - 24 Nights [CD2]
DYEAR=1991
DGENRE=Rock
TTITLE0=Pretending
TTITLE1=Bad Love
TTITLE2=Old Love
TTITLE3=Wonderful Tonight
TTITLE4=Bell Bottom Blues
TTITLE5=Hard Times
TTITLE6=Edge Of Darkness
EXTD=Recorded live at The Royal Albert Hall, London. 1990 and 1991  Prod
EXTD=uced by Russ Titelman
EXTT0=
EXTT1=
EXTT2=
EXTT3=
EXTT4=
EXTT5=
EXTT6=
PLAYORDER=
